<?xml version="1.0" encoding="UTF-8"?>
<!-- Created with Inkscape (http://www.inkscape.org/) -->
<svg width="48" height="48" version="1.1" viewBox="0 0 12.7 12.7" xmlns="http://www.w3.org/2000/svg">
 <path d="m4.4199 9.6967h-4.2148v-7.6121h1.2634v6.5451h2.9514zm3.9122 0.1274q-0.82279 0-1.4916-0.28134-0.66885-0.28134-1.1413-0.78563-0.47244-0.5096-0.73255-1.2156-0.26011-0.706-0.26011-1.5606 0-0.91303 0.26011-1.6562 0.26542-0.74316 0.74847-1.2687 0.48836-0.52552 1.1838-0.81217 0.69539-0.28665 1.5553-0.28665 0.79625 0 1.4545 0.28134 0.65823 0.28134 1.1254 0.79094 0.46713 0.50429 0.72193 1.2103 0.26011 0.706 0.26011 1.5553 0 1.1254-0.37689 1.9747-0.37689 0.84402-1.0617 1.3589l2.2083 1.5925h-1.9216l-1.3589-1.0564q-0.27072 0.074318-0.56268 0.11678-0.29196 0.042464-0.61045 0.042464zm0.058391-6.7575q-0.52021 0-0.95549 0.20702-0.42997 0.20172-0.74316 0.57861-0.31319 0.37158-0.48836 0.89179-0.16987 0.52021-0.16987 1.1572 0 0.63169 0.16456 1.1519 0.16987 0.52021 0.47244 0.89179 0.30257 0.36627 0.72724 0.5733 0.42466 0.20172 0.93957 0.20172 0.54676 0 0.98204-0.1911 0.43528-0.1911 0.73785-0.54676 0.30788-0.36096 0.47244-0.88118 0.16456-0.52021 0.16456-1.1838 0-0.67946-0.15925-1.2103-0.15925-0.53083-0.45651-0.89179-0.29726-0.36627-0.72724-0.55737-0.42466-0.1911-0.9608-0.1911z" fill="#fff" aria-label="LQ"/>
</svg>
