<?xml version="1.0" encoding="UTF-8"?>
<!-- Created with Inkscape (http://www.inkscape.org/) -->
<svg width="210mm" height="297mm" version="1.1" viewBox="0 0 210 297" xmlns="http://www.w3.org/2000/svg">
 <path d="m70.419 222.83h-70.161v-170.75h21.031v146.81h49.13zm65.124 2.8577q-13.696 0-24.83-6.3108-11.134-6.3108-18.998-17.622-7.8644-11.431-12.194-27.267-4.3298-15.836-4.3298-35.007 0-20.48 4.3298-37.15 4.4182-16.67 12.459-28.458 8.1295-11.788 19.705-18.218 11.576-6.4298 25.891-6.4298 13.255 0 24.212 6.3108 10.957 6.3108 18.733 17.742 7.776 11.312 12.018 27.148 4.3298 15.836 4.3298 34.888 0 25.243-6.2738 44.294-6.2738 18.932-17.673 30.482l36.759 35.721h-31.988l-22.621-23.695q-4.5066 1.667-9.3666 2.6196-4.86 0.95257-10.162 0.95257zm0.97202-151.58q-8.6597 0-15.906 4.6438-7.1575 4.5247-12.371 12.979-5.2135 8.3349-8.1295 20.004-2.8276 11.669-2.8276 25.957 0 14.169 2.7393 25.838 2.8276 11.669 7.8644 20.004 5.0367 8.2159 12.106 12.86 7.0691 4.5247 15.64 4.5247 9.1015 0 16.347-4.2866 7.2458-4.2866 12.283-12.264 5.1251-8.0968 7.8644-19.766 2.7393-11.669 2.7393-26.553 0-15.241-2.6509-27.148-2.6509-11.907-7.5993-20.004-4.9484-8.2159-12.106-12.502-7.0691-4.2866-15.994-4.2866z" fill="#fff" aria-label="LQ"/>
</svg>
